Coordinates
version=1
nRows=8
nColumns=46
inDegrees=yes

Units are S.I. units (second, meters, Newtons, ...)
Angles are in degrees.

endheader
time	pelvis_tilt	pelvis_list	pelvis_rotation	pelvis_tx	pelvis_ty	pelvis_tz	bb_angle	bb_tx	bb_ty	bb_tz	hip_flexion_r	hip_adduction_r	hip_rotation_r	knee_angle_r	knee_angle_r_beta	ankle_angle_r	subtalar_angle_r	mtp_angle_r	crank_angle_r	hip_flexion_l	hip_adduction_l	hip_rotation_l	knee_angle_l	knee_angle_l_beta	ankle_angle_l	subtalar_angle_l	mtp_angle_l	crank_angle_l	lumbar_extension	lumbar_bending	lumbar_rotation	arm_flex_r	arm_add_r	arm_rot_r	elbow_flex_r	pro_sup_r	wrist_flex_r	wrist_dev_r	arm_flex_l	arm_add_l	arm_rot_l	elbow_flex_l	pro_sup_l	wrist_flex_l	wrist_dev_l
      7.50500000	    -33.38982408	     -3.19933256	      6.39401869	      0.28764284	      1.02380219	     -0.20784729	      0.00000000	      0.50000000	      0.00000000	      0.25000000	     55.57730614	     -9.59992041	     -6.58081930	     68.98955875	      1.20409495	    -36.41044618	     -5.00603949	      0.00000000	      0.00000000	     83.69285677	     -0.68242437	      6.77782543	     79.52986371	      1.38805798	     10.52278633	     -1.76688333	      0.00000000	      0.00000000	    -37.28853035	     10.96549823	    -17.15176230	     66.81500207	      2.49236829	     50.83288758	     39.35388905	     51.63280782	      0.00000000	      0.00000000	     44.45723855	    -49.46967688	     36.73258979	     89.24005246	     52.07207630	      0.00000000	      0.00000000
      7.51000000	    -33.16817160	     -3.04161890	      5.88345646	      0.28818105	      1.02405259	     -0.20861309	      0.00000000	      0.50000000	      0.00000000	      0.25000000	     56.66419027	     -9.53001259	     -5.81683967	     71.36817376	      1.24560961	    -36.65580014	     -5.10023541	      0.00000000	      0.00000000	     81.40160644	     -1.18171490	      6.30012590	     76.50065137	      1.33518825	     10.79435311	     -2.02165948	      0.00000000	      0.00000000	    -37.48500017	     10.82192624	    -16.74750179	     67.08677361	      2.34437571	     51.10154307	     39.22956735	     51.63246919	      0.00000000	      0.00000000	     44.18067090	    -49.01126126	     36.37822804	     89.01517083	     51.98323594	      0.00000000	      0.00000000
      7.51500000	    -33.07147014	     -2.92716939	      5.37809446	      0.28857848	      1.02386004	     -0.20959734	      0.00000000	      0.50000000	      0.00000000	      0.25000000	     57.90524811	     -9.49671861	     -5.16060170	     73.74321089	      1.28706183	    -36.78831408	     -5.19210242	      0.00000000	      0.00000000	     79.15513786	     -1.45908986	      6.05294885	     73.33032973	      1.27985570	     10.71414348	     -2.92176628	      0.00000000	      0.00000000	    -37.49488138	     10.82782397	    -16.62767819	     68.60650380	      1.51260179	     56.61458621	     38.61978673	     52.25766675	      0.00000000	      0.00000000	     42.40603768	    -47.86886828	     33.40709301	     88.68091090	     51.59965914	      0.00000000	      0.00000000
      7.52000000	    -32.93563222	     -3.06029294	      4.83705973	      0.28916830	      1.02336413	     -0.21023795	      0.00000000	      0.50000000	      0.00000000	      0.25000000	     59.04492251	     -9.19294993	     -4.70117418	     76.08055146	      1.32785612	    -36.67915452	     -5.44124832	      0.00000000	      0.00000000	     76.94965496	     -1.99631361	      5.93455354	     70.25919020	      1.22625420	     11.00224034	     -3.19214619	      0.00000000	      0.00000000	    -37.55428336	     10.94576144	    -16.09129246	     68.92175171	      1.42228956	     56.69738001	     38.55082881	     52.25492598	      0.00000000	      0.00000000	     42.00518816	    -47.59201388	     33.43232989	     88.60477645	     51.59153622	      0.00000000	      0.00000000
      7.52500000	    -32.70535621	     -2.70956450	      4.33012781	      0.28970534	      1.02269138	     -0.21158748	      0.00000000	      0.50000000	      0.00000000	      0.25000000	     60.23629134	     -9.39045652	     -3.93411266	     78.66571747	      1.37297578	    -36.38203636	     -5.68288542	      0.00000000	      0.00000000	     74.50048154	     -2.12167487	      5.41793426	     67.15703655	      1.17211140	     10.74187914	     -4.32020508	      0.00000000	      0.00000000	    -37.57708720	     10.66804357	    -15.66455911	     69.74857161	      0.52529928	     59.80460985	     38.32360278	     52.66109789	      0.00000000	      0.00000000	     41.36106075	    -45.87167533	     31.45397447	     87.58427979	     51.22634434	      0.00000000	      0.00000000
      7.53000000	    -32.46634041	     -2.64304773	      3.68016789	      0.29034120	      1.02174722	     -0.21218330	      0.00000000	      0.50000000	      0.00000000	      0.25000000	     61.38129758	     -9.13172085	     -3.30480074	     81.07783748	      1.41507521	    -36.11519309	     -6.08735939	      0.00000000	      0.00000000	     72.11902773	     -2.60434779	      5.11837317	     64.15497148	      1.11971548	     10.76103725	     -4.68834524	      0.00000000	      0.00000000	    -37.68661867	     10.51919100	    -15.17155877	     70.01402984	      0.35162422	     60.16396364	     38.29404820	     52.70779686	      0.00000000	      0.00000000	     40.94210479	    -45.58443881	     31.41330405	     87.60721184	     51.23205252	      0.00000000	      0.00000000
      7.53500000	    -32.26378251	     -2.59809891	      3.09428551	      0.29085841	      1.02057845	     -0.21311138	      0.00000000	      0.50000000	      0.00000000	      0.25000000	     62.53788282	     -8.97807460	     -2.77808261	     83.50078906	      1.45736370	    -35.56071606	     -6.42288405	      0.00000000	      0.00000000	     69.80167837	     -2.91896641	      4.91010388	     61.14066441	      1.06710590	     10.30359024	     -5.64666757	      0.00000000	      0.00000000	    -37.71036110	     10.47891993	    -14.67462518	     71.35005355	     -0.84477449	     64.78803349	     38.70407948	     53.45839833	      0.00000000	      0.00000000	     40.14065917	    -44.32701009	     29.85538271	     87.09432580	     51.02249984	      0.00000000	      0.00000000
      7.54000000	    -32.07383912	     -2.48690549	      2.50041023	      0.29136136	      1.01900992	     -0.21382221	      0.00000000	      0.50000000	      0.00000000	      0.25000000	     63.76283739	     -8.86472492	     -2.20200523	     86.01766504	      1.50129147	    -34.71614924	     -6.73257262	      0.00000000	      0.00000000	     67.64170441	     -3.26484293	      4.59342554	     58.41989857	      1.01961958	      9.89220412	     -6.11448237	      0.00000000	      0.00000000	    -37.71362878	     10.29824787	    -14.24422155	     71.75124894	     -1.12178138	     65.49677608	     38.53710700	     53.53784302	      0.00000000	      0.00000000	     39.80166693	    -43.93069851	     29.67300666	     87.07291539	     51.01109205	      0.00000000	      0.00000000
